<svg width="1200" height="1200" xmlns="http://www.w3.org/2000/svg" xmlns:xlink="http://www.w3.org/1999/xlink" version="1.1"><g transform="scale(3.5417962084866943) translate(-90.56361643473309, -90.89943949381511)">                        <g fill="#000000"><g xmlns="http://www.w3.org/2000/svg"><path d="M259.97 107.84q.17 0 .18.01 30.57 30.39 71.11 70.91.15.15.01.31l-5.32 6.07q-.14.16-.29.01-41.09-40.8-65.29-64.93-.2-.19-.33-.19-.22 0-.42.19-24.2 24.13-65.28 64.94-.15.15-.29-.01l-5.33-6.07q-.14-.16.01-.31 40.54-40.53 71.1-70.92.01-.01.14-.01"/><path d="M259.94 128.96q.16 0 .3.13 28.55 28.48 60.77 60.48.18.18.02.37l-5.2 5.93q-.2.22-.41.02-29.55-29.44-55.21-54.82-.04-.04-.14-.06-.07-.02-.15-.02-.05 0-.12.02-.1.02-.14.06-25.64 25.39-55.18 54.85-.21.2-.41-.02l-5.2-5.93q-.16-.19.02-.37 32.2-32.02 60.74-60.51.13-.13.31-.13"/><path d="M260 150.01q.2 0 .31.11 19.45 19.45 51.01 50.67.21.2.02.43l-5.21 6.05q-.19.23-.4.02c-21.72-21.53-45.18-45.17-45.7-45.17-.57 0-24.01 23.65-45.72 45.2q-.21.21-.4-.02l-5.21-6.05q-.19-.23.02-.43 31.54-31.24 50.97-50.7.11-.11.31-.11"/><path d="M182.52 260.38q0 .12.08.21 62.8 62.6 77.1 76.82.35.35.69 0l75.79-75.79q.5-.5 1.2-.5h10.82q.93 0 .27.67l-88.17 88.17q-.2.2-.41 0-43.56-43.53-89.3-88.73-.51-.51-.51-.85 0-.35.51-.85 45.76-45.19 89.33-88.7.21-.2.41 0l88.14 88.2q.66.67-.27.67l-10.82-.01q-.7 0-1.2-.5l-75.76-75.81q-.34-.35-.69 0-14.31 14.21-77.13 76.79-.08.09-.08.21M180.66 187.21l5.61 5.61a.34.34 0 0 1 0 .48l-66.49 66.5a.34.34 0 0 1-.24.1h-11.23a.34.34 0 0 1-.24-.58l72.11-72.11a.34.34 0 0 1 .48 0M333.38 192.56l6.18-5.04a.3.3 0 0 1 .4.02l71.75 71.75a.3.3 0 0 1-.21.51h-11.22a.3.3 0 0 1-.21-.09L333.35 193a.3.3 0 0 1 .03-.44"/><path d="M192.64 260.44q0 .35 12.27.4.49 0 .83.34l53.9 53.91a.28.28 0 0 0 .4 0l53.67-53.66a.92.92 0 0 1 .65-.27h12.63q.73 0 .22.51l-66.98 66.98a.36.35 44.4 0 1-.51 0q-33.63-33.5-67.36-67.02-.72-.72-.72-1.19t.72-1.18q33.74-33.51 67.38-67a.36.35-44.4 0 1 .51 0l66.96 67q.51.51-.22.51h-12.63a.92.92 0 0 1-.65-.27l-53.65-53.68a.28.28 0 0 0-.4 0l-53.92 53.89q-.34.34-.83.34-12.27.04-12.27.39M192.24 196.81l5.39 5.4a.32.32 0 0 1 0 .46l-57.16 57.16a.32.32 0 0 1-.22.09h-10.81a.32.32 0 0 1-.22-.55l62.56-62.56a.32.32 0 0 1 .46 0M321.95 201.93l6.04-4.92a.42.42 0 0 1 .56.03l61.95 61.95a.42.42 0 0 1-.29.72h-10.96a.42.42 0 0 1-.29-.12l-57.04-57.04a.42.42 0 0 1 .03-.62"/><path d="M150.33 260.47q0 .7 10.17.49 1.05-.02 1.69.61 15.66 15.49 47.9 47.69.2.2-.01.37l-6.3 5.13q-.18.14-.34-.02-25.06-25.16-52.98-52.68-.74-.73-.74-1.59t.74-1.59q27.93-27.51 52.99-52.67.16-.16.34-.02l6.3 5.13q.21.17.01.37-32.25 32.2-47.91 47.68-.64.63-1.69.61-10.17-.21-10.17.49M309.96 211.18l6.16-5.03a.35.35 0 0 1 .47.02l52.95 52.95a.35.35 0 0 1-.24.6h-11.2a.35.35 0 0 1-.24-.1l-47.93-47.93a.35.35 0 0 1 .03-.51M304.63 260.46q0 .78-.94 1.73-19.36 19.51-43.68 43.55a.22.21-44.1 0 1-.31 0q-14.16-14.13-44.67-44.46-.39-.39-.39-.84 0-.44.39-.83 30.52-30.32 44.69-44.44a.22.21 44.1 0 1 .31 0q24.31 24.05 43.66 43.57.94.94.94 1.72m-76.88-.23q0 .11.08.18 11.94 11.85 31.56 31.59a.66.66 0 0 0 .94 0l30.69-30.69a2.18 2.15-65.9 0 1 1.63-.64q11.25.51 11.25-.22 0-.74-11.25-.3a2.18 2.15 66.2 0 1-1.62-.64l-30.52-30.86a.66.66 0 0 0-.94-.01q-19.73 19.63-31.74 31.41-.08.07-.08.18m-7.74.59q4.18.06 4.18-.14.01-.19-4.17-.25-4.18-.05-4.18.14 0 .2 4.17.25"/><ellipse rx="11.06" ry=".39" transform="rotate(.3 -49608.013 49186.744)"/><path d="m186.71 328.49-6.16 5.01a.35.35 0 0 1-.46-.02l-71.94-71.93a.35.35 0 0 1 .25-.6h11.17a.35.35 0 0 1 .24.1l66.93 66.93a.35.35 0 0 1-.03.51M198.12 318.99l-6.09 4.97a.41.41 0 0 1-.55-.03l-62.3-62.3a.41.41 0 0 1 .29-.7h11.05a.4.4 0 0 1 .29.12l57.34 57.33a.41.41 0 0 1-.03.61M339.37 333.98l-5.51-5.52a.32.32 0 0 1 0-.46l66.51-66.52a.32.32 0 0 1 .22-.09h11.06a.32.32 0 0 1 .22.55l-72.04 72.04a.32.32 0 0 1-.46 0M315.75 315.08l-5.52-5.52a.33.33 0 0 1 0-.46l47.66-47.66a.33.33 0 0 1 .24-.1h11.02a.33.33 0 0 1 .24.56l-53.18 53.18a.33.33 0 0 1-.46 0M327.69 324.31l-5.4-5.4a.31.31 0 0 1 0-.44l56.95-56.95a.3.3 0 0 1 .22-.09h10.8a.31.31 0 0 1 .22.53l-62.35 62.35a.31.31 0 0 1-.44 0M260 358.59c.52 0 23.81-23.49 45.38-44.89q.22-.21.41.02l5.17 6.01q.19.23-.02.43-31.34 31.02-50.66 50.35-.11.11-.31.11-.19 0-.31-.11-19.31-19.33-50.65-50.35-.21-.2-.02-.43l5.18-6.01q.18-.23.4-.02c21.57 21.4 44.86 44.89 45.43 44.89"/><path d="M260.02 379.66q.05 0 .12-.02.1-.02.14-.06 25.58-25.28 55.03-54.61.21-.2.41.02l5.18 5.91q.15.19-.02.37-32.12 31.88-60.58 60.24-.13.13-.3.13t-.3-.13q-28.43-28.39-60.51-60.3-.18-.18-.02-.37l5.19-5.91q.2-.22.4-.02 29.43 29.36 54.98 54.67.04.04.13.06.08.02.15.02"/><path d="M260.14 400.64q.12 0 .32-.2 24.09-24.03 64.98-64.66.15-.15.29.01l5.3 6.04q.14.16-.01.31-40.35 40.36-70.77 70.62-.01.01-.18.01-.13 0-.14-.01-30.44-30.25-70.81-70.58-.15-.15-.01-.31l5.29-6.05q.14-.16.29-.01 40.92 40.62 65.03 64.63.19.2.42.2"/></g></g>        </g></svg>